<?xml version="1.0" standalone="no"?>
<!DOCTYPE svg PUBLIC "-//W3C//DTD SVG 20010904//EN"
 "http://www.w3.org/TR/2001/REC-SVG-20010904/DTD/svg10.dtd">
<svg version="1.0" xmlns="http://www.w3.org/2000/svg"
 width="366.000000pt" height="366.000000pt" viewBox="0 0 366.000000 366.000000"
 preserveAspectRatio="xMidYMid meet">
<metadata>
Created by potrace 1.14, written by Peter Selinger 2001-2017
</metadata>
<g transform="translate(0.000000,366.000000) scale(0.100000,-0.100000)"
fill="#000000" stroke="none">
<path d="M1789 3636 c-24 -13 -64 -34 -89 -47 -25 -13 -50 -31 -57 -39 -6 -8
-15 -12 -18 -8 -4 4 -27 -6 -51 -23 -24 -16 -44 -27 -44 -23 0 4 -8 0 -17 -8
-10 -9 -28 -19 -40 -22 -13 -4 -23 -12 -23 -17 0 -6 -4 -8 -9 -4 -5 3 -15 0
-23 -7 -7 -7 -26 -20 -43 -28 -16 -8 -33 -19 -37 -25 -4 -5 -8 -6 -8 -1 0 5
-9 1 -20 -9 -11 -10 -20 -15 -20 -12 0 8 -104 -54 -108 -65 -2 -5 -8 -6 -13
-2 -5 3 -16 -2 -25 -10 -8 -9 -22 -16 -30 -16 -8 0 -14 -5 -14 -11 0 -5 -4 -8
-9 -4 -5 3 -12 1 -15 -4 -3 -5 -29 -21 -58 -36 -70 -37 -92 -49 -98 -55 -3 -3
-23 -14 -45 -25 -22 -11 -43 -24 -46 -28 -3 -5 -10 -9 -15 -9 -18 -1 -54 -21
-54 -30 0 -5 -5 -6 -10 -3 -6 3 -10 1 -10 -5 0 -6 -5 -8 -10 -5 -6 3 -10 1
-10 -5 0 -6 -4 -9 -9 -5 -5 3 -12 1 -16 -4 -3 -5 -18 -16 -33 -24 -129 -66
-248 -131 -250 -138 -2 -5 -11 -9 -19 -9 -9 0 -22 -8 -30 -17 -8 -10 -11 -11
-7 -4 5 9 -4 6 -23 -7 l-30 -21 -1 -984 0 -983 44 -27 c25 -15 49 -27 54 -27
6 0 10 -5 10 -11 0 -5 5 -7 10 -4 6 3 10 1 10 -5 0 -6 4 -8 10 -5 6 3 10 1 10
-4 0 -6 6 -11 14 -11 8 0 21 -6 28 -13 13 -13 46 -28 51 -24 2 1 11 -6 21 -15
10 -10 24 -18 32 -18 8 0 14 -5 14 -12 0 -6 3 -9 6 -5 4 3 13 0 21 -8 8 -8 17
-15 21 -15 4 0 7 262 7 582 0 562 0 582 19 600 11 10 29 21 40 24 12 4 23 10
26 13 3 4 25 18 50 30 25 13 63 33 85 44 22 12 43 25 46 30 3 5 9 7 12 5 4 -1
17 5 29 14 13 9 28 18 33 18 6 1 18 9 28 17 9 9 17 12 17 7 0 -5 4 -4 8 2 4 5
23 18 42 27 19 10 62 33 95 53 33 19 68 38 78 41 9 3 17 10 17 15 0 5 4 7 9 4
4 -3 16 3 26 14 10 11 22 17 26 14 5 -3 9 0 9 6 0 6 5 8 10 5 6 -3 10 -2 10 2
0 5 19 17 43 28 23 10 44 21 47 25 3 3 24 16 47 27 67 35 88 47 95 58 4 6 8 6
8 2 0 -5 12 1 26 12 15 12 32 21 39 21 7 0 24 9 39 21 14 11 26 18 26 14 0 -4
7 1 16 9 8 9 19 14 24 11 4 -3 13 2 20 10 7 8 19 15 26 15 8 0 14 4 14 9 0 5
12 14 28 20 15 6 42 20 60 31 32 19 82 24 82 7 0 -4 5 -5 10 -2 6 3 10 1 10
-5 0 -6 5 -8 10 -5 6 3 10 2 10 -3 0 -4 16 -14 35 -22 19 -8 35 -18 35 -22 0
-5 5 -6 10 -3 6 3 10 2 10 -3 0 -5 27 -21 59 -35 33 -15 62 -31 66 -37 3 -6
11 -8 16 -5 5 4 9 1 9 -6 0 -7 3 -10 6 -6 4 3 13 -1 21 -9 8 -8 19 -12 24 -9
5 4 9 1 9 -4 0 -6 6 -11 14 -11 20 0 37 -25 30 -44 -3 -9 -10 -13 -15 -10 -5
3 -9 1 -9 -4 0 -5 -8 -12 -17 -16 -10 -3 -40 -19 -68 -35 -27 -17 -67 -38 -87
-48 -21 -10 -38 -21 -38 -26 0 -4 -4 -5 -10 -2 -5 3 -10 1 -10 -4 0 -6 -6 -11
-14 -11 -7 0 -25 -9 -38 -20 -14 -10 -28 -16 -32 -13 -3 3 -6 2 -6 -4 0 -6
-11 -14 -25 -17 -14 -4 -25 -11 -25 -16 0 -6 -9 -10 -20 -10 -11 0 -20 -4 -20
-8 0 -4 -16 -14 -35 -21 -19 -7 -35 -17 -35 -22 0 -6 -4 -8 -9 -5 -5 3 -14 -1
-21 -9 -7 -8 -19 -15 -26 -15 -8 0 -14 -5 -14 -11 0 -5 -4 -8 -9 -5 -5 3 -14
-1 -21 -9 -7 -8 -18 -15 -26 -15 -7 0 -20 -7 -28 -16 -9 -8 -16 -13 -16 -9 0
3 -12 -2 -27 -13 -16 -11 -38 -23 -51 -26 -12 -4 -20 -12 -17 -17 3 -5 -1 -6
-9 -3 -9 3 -16 1 -16 -5 0 -6 -6 -11 -14 -11 -8 0 -22 -8 -32 -17 -10 -10 -19
-17 -21 -16 -8 4 -43 -10 -43 -18 0 -5 -6 -9 -14 -9 -8 0 -21 -6 -28 -12 -7
-7 -61 -37 -118 -67 -58 -30 -108 -59 -112 -65 -4 -6 -8 -7 -8 -3 0 5 -12 0
-27 -10 -16 -10 -50 -29 -78 -43 -27 -14 -52 -27 -55 -30 -3 -3 -24 -14 -47
-25 -24 -11 -43 -23 -43 -27 0 -5 -8 -8 -18 -8 -39 0 -41 -20 -41 -513 l0
-476 29 -13 c17 -7 30 -15 30 -19 0 -3 16 -11 35 -19 19 -8 35 -17 35 -22 0
-4 3 -7 8 -6 4 1 29 -11 57 -27 90 -54 130 -75 157 -86 16 -6 28 -15 28 -21 0
-5 5 -6 10 -3 6 3 10 2 10 -3 0 -5 8 -12 18 -15 9 -3 58 -29 107 -57 50 -28
102 -56 118 -62 15 -7 27 -16 27 -21 0 -4 4 -6 9 -2 5 3 17 -2 25 -11 9 -8 16
-12 16 -8 0 4 8 0 18 -9 10 -9 33 -22 50 -28 18 -6 32 -15 32 -21 0 -5 5 -6
10 -3 6 3 10 1 10 -5 0 -6 4 -9 9 -6 5 4 11 3 13 -2 6 -14 73 -41 76 -31 2 5
7 7 12 4 4 -3 13 2 20 10 7 8 19 15 26 15 8 0 14 5 14 12 0 6 3 8 7 5 3 -4 11
-3 17 2 17 14 139 81 159 88 9 3 17 10 17 15 0 5 5 6 10 3 6 -3 10 -1 10 5 0
6 5 8 10 5 6 -3 10 -1 10 4 0 6 6 11 14 11 8 0 22 8 32 18 10 9 20 16 23 15 3
-1 20 6 36 16 17 9 32 17 35 17 3 -1 19 9 37 22 17 12 36 22 42 22 6 0 11 5
11 11 0 5 5 7 10 4 6 -3 10 -1 10 4 0 6 6 11 14 11 7 0 26 10 42 23 16 12 29
20 29 19 0 -8 55 22 55 30 0 5 5 6 10 3 6 -3 10 -1 10 5 0 6 4 9 9 6 5 -3 14
1 21 9 7 8 19 15 26 15 8 0 14 5 14 11 0 5 5 7 10 4 6 -3 10 -2 10 3 0 5 20
17 45 28 25 10 45 21 45 25 0 4 11 10 25 13 14 4 25 11 25 17 0 6 5 7 10 4 6
-3 10 -1 10 5 0 6 5 8 10 5 6 -3 10 -2 10 3 0 6 11 13 25 16 14 4 25 11 25 17
0 6 5 7 10 4 6 -3 10 -1 10 4 0 6 6 11 14 11 7 0 25 9 38 20 14 10 28 16 32
13 3 -3 6 -2 6 4 0 6 11 14 25 17 14 4 25 10 25 15 0 5 14 12 30 16 17 4 30
10 30 15 0 4 11 11 25 14 14 4 25 11 25 17 0 6 5 7 10 4 6 -3 10 -1 10 4 0 6
3 10 8 9 9 -3 86 43 90 54 2 5 7 6 11 3 4 -2 23 6 42 19 l34 24 0 176 c0 158
-2 176 -17 176 -9 0 -18 -3 -20 -7 -3 -8 -26 -21 -113 -66 -22 -12 -42 -24
-45 -27 -3 -4 -20 -13 -37 -21 -18 -8 -33 -18 -33 -22 0 -5 -4 -5 -10 -2 -5 3
-10 1 -10 -5 0 -6 -4 -8 -10 -5 -5 3 -10 2 -10 -4 0 -5 -9 -12 -20 -16 -11 -3
-64 -31 -117 -62 -109 -62 -170 -96 -244 -134 -27 -14 -46 -29 -42 -33 4 -4 0
-4 -10 0 -10 3 -17 1 -17 -6 0 -6 -4 -8 -10 -5 -5 3 -10 1 -10 -4 0 -6 -6 -11
-14 -11 -8 0 -21 -6 -28 -13 -7 -6 -32 -21 -55 -32 -24 -11 -43 -24 -43 -28 0
-5 -4 -6 -9 -2 -5 3 -12 1 -15 -4 -4 -5 -31 -22 -62 -38 -31 -15 -64 -36 -74
-45 -10 -9 -20 -14 -24 -11 -3 3 -21 -6 -41 -21 -19 -15 -35 -24 -35 -21 0 4
-13 -3 -29 -14 -16 -12 -34 -21 -40 -21 -6 0 -11 -4 -11 -10 0 -5 -6 -10 -14
-10 -7 0 -25 -9 -40 -21 -14 -11 -26 -18 -26 -14 0 3 -17 -6 -37 -20 -21 -14
-43 -25 -50 -25 -7 0 -13 -4 -13 -10 0 -5 -11 -12 -25 -16 -14 -3 -25 -10 -25
-16 0 -5 -4 -6 -10 -3 -5 3 -10 2 -10 -4 0 -12 -30 -7 -62 10 -13 7 -27 12
-31 11 -4 -1 -10 5 -13 13 -3 8 -10 13 -14 10 -4 -3 -24 6 -43 19 -19 13 -38
22 -41 18 -3 -3 -6 0 -6 7 0 7 -5 9 -10 6 -5 -3 -10 -2 -10 2 0 9 -84 54 -96
52 -4 0 -10 3 -13 8 -3 4 -35 23 -71 42 -36 19 -73 41 -84 50 -10 9 -21 15
-25 14 -3 0 -22 9 -41 20 l-36 22 3 308 c3 307 3 309 25 327 13 11 28 19 34
20 6 0 17 7 24 15 7 9 15 13 18 11 3 -3 17 3 32 14 16 11 32 20 38 20 5 0 15
7 22 15 7 8 16 12 21 9 5 -3 9 0 9 5 0 6 6 11 14 11 7 0 29 11 49 24 19 13 38
22 41 18 3 -3 6 0 6 7 0 7 5 9 10 6 6 -3 10 -1 10 5 0 6 5 8 10 5 6 -3 10 -2
10 3 0 6 11 13 25 16 14 4 25 11 25 17 0 6 5 7 10 4 6 -3 10 -1 10 5 0 6 4 9
9 6 5 -4 11 -3 13 1 1 5 21 17 42 28 96 49 111 58 114 66 2 5 8 7 13 3 5 -3 9
0 9 5 0 6 6 11 13 11 8 0 24 9 37 20 12 11 27 17 31 14 5 -3 9 0 9 6 0 6 4 9
9 6 4 -3 16 3 26 14 10 11 22 17 26 14 5 -3 9 0 9 5 0 6 6 11 14 11 8 0 22 7
30 16 9 8 16 13 16 10 0 -3 39 17 86 44 47 28 90 50 95 50 5 0 9 5 9 11 0 5 5
7 10 4 6 -3 10 -1 10 5 0 6 5 8 10 5 6 -3 10 -1 10 4 0 6 7 11 15 11 8 0 15 5
15 10 0 6 9 10 20 10 11 0 20 5 20 11 0 5 4 8 9 5 5 -4 11 -3 13 1 1 5 21 17
42 28 96 49 111 58 114 66 2 5 8 7 13 3 5 -3 9 0 9 5 0 6 6 11 13 11 7 0 24 8
37 17 14 10 31 18 39 20 32 4 35 25 36 211 1 185 0 187 -23 209 -14 13 -28 20
-33 18 -4 -3 -10 -1 -14 5 -7 11 -100 61 -111 59 -4 0 -10 3 -13 8 -3 4 -28
19 -56 33 -27 14 -52 27 -55 30 -5 5 -66 38 -175 94 -22 12 -42 23 -45 26 -3
3 -27 16 -55 30 -27 14 -56 31 -63 38 -8 6 -18 10 -23 7 -5 -4 -9 -1 -9 5 0 6
-4 8 -10 5 -5 -3 -10 -2 -10 4 0 6 -11 13 -25 17 -14 3 -25 10 -25 15 0 13
-43 4 -48 -9 -2 -7 -8 -10 -13 -6 -5 3 -9 0 -9 -6 0 -6 -4 -8 -10 -5 -5 3 -10
1 -10 -4 0 -6 -3 -10 -7 -9 -5 1 -27 -10 -50 -25 -24 -15 -47 -27 -51 -27 -5
0 -21 -9 -34 -20 -14 -10 -28 -16 -32 -13 -3 3 -6 1 -6 -5 0 -7 -7 -12 -15
-12 -8 0 -15 -5 -15 -11 0 -5 -5 -7 -10 -4 -6 3 -12 0 -15 -7 -3 -8 -15 -15
-27 -15 -12 -1 -24 -6 -27 -10 -10 -14 -61 -44 -61 -36 0 5 -4 4 -8 -2 -8 -12
-80 -54 -104 -62 -10 -3 -18 -10 -18 -15 0 -5 -4 -6 -10 -3 -5 3 -10 2 -10 -3
0 -4 -16 -14 -35 -22 -19 -8 -35 -17 -35 -22 0 -4 -6 -8 -14 -8 -7 0 -25 -9
-40 -21 -14 -11 -26 -18 -26 -14 0 3 -13 -3 -29 -14 -16 -12 -34 -21 -40 -21
-6 0 -11 -4 -11 -9 0 -5 -11 -12 -25 -15 -14 -4 -25 -11 -25 -17 0 -6 -4 -8
-8 -5 -5 3 -18 -2 -28 -12 -11 -9 -26 -18 -34 -20 -8 -2 -17 -7 -20 -10 -3 -4
-18 -14 -35 -22 -16 -8 -38 -21 -47 -29 -10 -8 -18 -11 -18 -7 0 4 -12 -1 -27
-12 -16 -11 -59 -37 -98 -57 -38 -21 -73 -43 -77 -49 -5 -6 -8 -7 -8 -1 0 6
-3 6 -8 0 -10 -15 -61 -36 -65 -27 -9 16 -1 442 8 450 9 8 76 46 190 106 22
11 42 23 45 26 6 6 68 40 138 75 28 15 52 31 52 36 0 6 4 8 9 5 5 -3 20 3 33
14 14 11 28 16 32 13 3 -3 6 0 6 7 0 7 3 11 6 7 3 -3 30 10 59 29 30 19 59 34
65 34 5 0 10 5 10 11 0 5 4 8 9 5 5 -3 14 1 21 9 7 8 16 13 20 10 5 -3 11 -1
15 5 3 6 21 17 38 25 41 20 71 37 91 54 9 7 16 10 16 7 0 -4 17 5 37 19 21 14
43 25 49 25 6 0 21 9 34 20 13 11 27 20 32 20 4 0 36 17 71 38 34 20 69 37 77
37 19 0 93 -36 102 -49 4 -6 8 -7 8 -3 0 5 7 1 16 -7 8 -9 20 -14 25 -11 5 4
9 2 9 -4 0 -6 11 -13 25 -17 14 -3 25 -11 25 -16 0 -6 7 -8 15 -4 8 3 15 2 15
-3 0 -4 17 -16 38 -27 20 -10 39 -22 42 -25 3 -3 20 -12 38 -20 17 -8 32 -18
32 -22 0 -5 5 -5 10 -2 6 3 10 1 10 -5 0 -6 4 -9 9 -6 5 3 14 -1 21 -9 7 -8
18 -15 26 -15 7 0 20 -7 28 -16 9 -8 16 -12 16 -7 0 4 4 3 8 -3 4 -6 21 -17
37 -26 49 -25 148 -80 175 -97 14 -9 39 -23 55 -31 17 -8 32 -17 35 -20 3 -3
14 -10 25 -16 92 -49 112 -61 123 -72 8 -7 18 -10 23 -7 5 4 9 1 9 -4 0 -6 7
-11 15 -11 8 0 15 -5 15 -11 0 -5 5 -7 10 -4 6 3 10 1 10 -5 0 -6 5 -8 10 -5
6 3 10 2 10 -3 0 -4 16 -14 35 -22 19 -8 35 -17 35 -22 0 -4 9 -8 20 -8 18 0
20 -7 21 -87 0 -49 -1 -128 -2 -178 -1 -49 -1 -190 0 -311 l2 -222 -30 -21
c-16 -12 -34 -21 -41 -21 -6 0 -8 -4 -5 -10 3 -5 0 -7 -8 -4 -8 3 -17 -2 -21
-11 -3 -9 -10 -13 -16 -10 -5 3 -10 1 -10 -6 0 -7 -3 -9 -6 -6 -4 3 -18 -3
-32 -13 -13 -11 -31 -20 -38 -20 -8 0 -14 -3 -14 -8 0 -4 -15 -13 -32 -21 -18
-8 -49 -24 -68 -36 -46 -28 -122 -72 -185 -104 -27 -14 -52 -28 -55 -31 -10
-10 -105 -62 -142 -77 -21 -9 -38 -20 -38 -25 0 -5 -4 -6 -10 -3 -5 3 -10 1
-10 -4 0 -6 -6 -11 -14 -11 -8 0 -21 -6 -28 -13 -7 -7 -28 -19 -45 -26 -18 -7
-33 -18 -33 -23 0 -5 -4 -7 -9 -4 -4 3 -19 -3 -31 -14 -13 -11 -29 -20 -37
-20 -7 0 -13 -5 -13 -11 0 -5 -4 -7 -10 -4 -5 3 -10 1 -10 -4 0 -6 -7 -11 -15
-11 -8 0 -15 -5 -15 -11 0 -5 -4 -8 -9 -5 -4 3 -21 -5 -37 -19 -15 -13 -31
-22 -35 -20 -4 3 -13 -3 -20 -12 -10 -12 -14 -59 -15 -187 0 -94 1 -174 3
-178 4 -8 94 41 105 56 5 7 8 7 8 1 0 -7 3 -7 8 0 4 6 25 19 47 30 22 11 42
22 45 25 3 3 25 15 49 28 64 33 105 56 111 63 3 3 20 11 38 18 17 8 32 18 32
23 0 5 4 7 9 3 5 -3 12 -1 16 5 3 5 23 17 43 27 20 9 39 20 42 24 3 4 21 14
40 23 19 9 58 29 85 46 28 16 83 46 123 67 39 20 72 41 72 46 0 4 4 6 9 3 5
-3 14 1 21 9 7 8 19 15 26 15 8 0 14 5 14 11 0 5 5 7 10 4 6 -3 10 -1 10 4 0
6 6 11 14 11 8 0 22 8 32 18 10 9 19 16 21 14 5 -4 137 70 145 82 4 6 8 7 8 2
0 -5 7 -3 15 4 21 17 76 49 98 56 9 4 17 11 17 16 0 5 5 6 10 3 6 -3 10 -2 10
2 0 5 12 14 28 20 36 15 86 46 90 56 2 4 10 7 18 7 16 0 16 -9 14 230 -2 221
-2 293 0 300 1 3 3 142 4 310 l2 305 -25 22 c-14 12 -28 20 -33 17 -4 -3 -8
-1 -8 5 0 5 -20 17 -45 27 -25 9 -45 20 -45 24 0 4 -8 10 -17 13 -10 3 -51 24
-90 46 -40 22 -73 37 -73 33 0 -4 -5 1 -11 11 -6 9 -14 15 -20 12 -5 -4 -9 -1
-9 5 0 6 -4 8 -10 5 -5 -3 -10 -2 -10 3 0 4 -16 14 -35 22 -19 8 -35 17 -35
22 0 4 -7 8 -15 8 -8 0 -15 4 -15 10 0 5 -3 10 -7 9 -14 -2 -53 13 -53 21 0 4
-19 15 -42 26 -24 10 -45 21 -48 25 -3 3 -20 12 -37 20 -18 8 -33 18 -33 22 0
5 -4 5 -10 2 -5 -3 -10 -1 -10 5 0 6 -4 8 -10 5 -5 -3 -10 -2 -10 2 0 9 -19
20 -82 48 -21 10 -38 21 -38 26 0 5 -8 9 -19 9 -10 0 -24 7 -31 15 -7 8 -16
12 -21 9 -5 -3 -9 -1 -9 5 0 6 -11 13 -25 17 -13 3 -29 12 -36 20 -6 8 -15 11
-20 8 -5 -3 -9 -1 -9 4 0 4 -16 14 -35 22 -19 8 -35 16 -35 19 0 3 -19 15 -43
26 -23 11 -63 32 -89 47 -27 15 -48 24 -48 21 0 -4 -7 2 -15 13 -8 10 -15 15
-15 9 0 -5 -4 -4 -9 3 -4 7 -14 14 -22 16 -8 1 -25 9 -39 18 -33 21 -123 68
-131 68 -3 0 -26 -11 -50 -24z"/>
</g>
</svg>
